# xmcd CD database file
#
# Track frame offsets:
#	150
#	12098
#	23903
#	37490
#	50035
#	62390
#	76893
#	89833
#	105158
#	117270
#	131908
#	144660
#	157333
#	170623
#	182610
#	195775
#	208390
#	218918
#	231668
#	244478
#	258411
#	272053
#	283461
#	296628
#	307123
#	319671
#
# Disc length: 4462 seconds
#
# Revision: 0
# Processed by: cddbd v1.5.1PL2 Copyright (c) Steve Scherf et al.
# Submitted via: CDex 1.51
#
DISCID=9f116c1a
DTITLE=Ray Charles - The Birth Of Soul - Disk 1
DYEAR=1900
DGENRE=Blues
TTITLE0=The Sun's Gonna Shine Again
TTITLE1=Roll With My Baby
TTITLE2=The Midnight Hour
TTITLE3=Jumpin' In The Morning
TTITLE4=It Should Have Been Me
TTITLE5=Losing Hand
TTITLE6=Heart Breaker
TTITLE7=Sinner's Prayer
TTITLE8=Mess Around
TTITLE9=Funny But I Still Love You
TTITLE10=Feelin' Sad
TTITLE11=I Wonder Who
TTITLE12=Don't You Know
TTITLE13=Nobody Cares
TTITLE14=Ray's Blues
TTITLE15=Mr. Charles Again
TTITLE16=Black Jack
TTITLE17=I Got A Woman
TTITLE18=Greenbacks
TTITLE19=Come Back Baby
TTITLE20=A Fool For You
TTITLE21=This Little Girl Of Mine
TTITLE22=Hard Times
TTITLE23=A Bit Of Soul
TTITLE24=Mary Ann
TTITLE25=Drown In My Own Tears
EXTD=
EXTT0=
EXTT1=
EXTT2=
EXTT3=
EXTT4=
EXTT5=
EXTT6=
EXTT7=
EXTT8=
EXTT9=
EXTT10=
EXTT11=
EXTT12=
EXTT13=
EXTT14=
EXTT15=
EXTT16=
EXTT17=
EXTT18=
EXTT19=
EXTT20=
EXTT21=
EXTT22=
EXTT23=
EXTT24=
EXTT25=
PLAYORDER=
